<?xml version="1.0" encoding="UTF-8"?>
<svg width="40px" height="54px" viewBox="0 0 40 54" version="1.1" xmlns="http://www.w3.org/2000/svg" xmlns:xlink="http://www.w3.org/1999/xlink">
    <!-- Generator: Sketch 50.2 (55047) - http://www.bohemiancoding.com/sketch -->
    <title>tooth-3</title>
    <desc>Created with Sketch.</desc>
    <defs></defs>
    <g id="Page-1" stroke="none" stroke-width="1" fill="none" fill-rule="evenodd">
        <g id="1440-copy" transform="translate(-135.000000, -323.000000)" fill="#2AB88C" fill-rule="nonzero">
            <g id="tooth-3" transform="translate(135.000000, 323.000000)">
                <path d="M28.8506535,0 C27.1732566,0 25.5800639,0.755459586 24.03955,1.4852502 C22.6164034,2.15960677 21.2729574,2.79627911 19.9999318,2.79627911 C18.7269061,2.79627911 17.3833236,2.15960677 15.9603135,1.4852502 C14.4197996,0.755049975 12.8271528,0 11.14921,0 C4.6890961,0 0,7.04340109 0,16.7469538 C0,21.1175053 0.992708898,30.1918953 2.83087169,38.4009133 C5.14887563,48.7513786 7.94753955,53.9994539 11.14921,53.9994539 C13.4444228,53.9994539 14.345285,50.0516211 15.7408639,43.0738944 C16.6963156,38.2922298 18.1412979,31.0666882 19.996247,31.0587691 C22.4669649,31.067644 23.7629181,38.4250803 24.7081342,43.7972677 C25.7902333,49.9411626 26.5053549,54 28.85079,54 C36.4140199,54 40,24.1189996 40,16.7470904 C39.9998635,7.04285494 35.310358,0 28.8506535,0 Z M28.8697598,52.2000319 C27.9571609,51.8636045 27.0702191,46.8208811 26.4824273,43.4850075 C25.2521179,36.4966308 23.9795017,29.2705431 19.996247,29.2566164 C16.6636984,29.2705431 15.3571002,35.8041148 13.9739404,42.7202634 C13.288297,46.1499379 12.1409636,51.891185 11.14921,52.1973011 C6.24639624,52.1973011 1.80186082,26.676612 1.80186082,16.7469538 C1.80186082,8.08736349 5.7329826,1.80269888 11.14921,1.80269888 C12.4218262,1.80269888 13.7658181,2.43937122 15.1888283,3.11372779 C16.7293422,3.84406456 18.3223984,4.59897799 19.9999318,4.59897799 C21.6774651,4.59897799 23.2705214,3.84351841 24.8110353,3.11372779 C26.2341819,2.43937122 27.5780373,1.80269888 28.8506535,1.80269888 C34.2668809,1.80269888 38.1980027,8.08736349 38.1980027,16.7469538 C38.1980027,26.6760658 33.7536038,52.1971646 28.8697598,52.2000319 Z" id="Shape"></path>
                <path d="M26.0925974,17 L11.9074026,17 C11.4061039,17 11,17.4103256 11,17.9168356 C11,22.3738609 14.5888312,26 19,26 C23.4111688,26 27,22.3738609 27,17.9168356 C27,17.4103256 26.594026,17 26.0925974,17 Z M19,24.1663289 C15.8979221,24.1663289 13.321039,21.8462245 12.8812987,18.8336711 L25.1188312,18.8336711 C24.678961,21.8462245 22.1022078,24.1663289 19,24.1663289 Z" id="Shape"></path>
                <path d="M15.1002108,9 C14.6029208,9 14.2001581,9.44794922 14.2001581,10.0000488 C14.2001581,11.6545898 12.9892332,13.0000488 11.5001318,13.0000488 C10.0110303,13.0000488 8.80010544,11.6545898 8.80010544,10.0000488 C8.80010544,9.4480957 8.39734273,9 7.90005272,9 C7.40276272,9 7,9.44794922 7,10.0000488 C7,12.7570312 9.01869156,15 11.4999999,15 C13.9813083,15 15.9999999,12.7570312 15.9999999,10.0000488 C16.0002635,9.4480957 15.5975008,9 15.1002108,9 Z" id="Shape"></path>
                <path d="M32.1002108,9 C31.6029208,9 31.2001581,9.44794922 31.2001581,10.0000488 C31.2001581,11.6545898 29.9892332,13.0000488 28.5001318,13.0000488 C27.0110303,13.0000488 25.8001054,11.6545898 25.8001054,10.0000488 C25.8001054,9.4480957 25.3973427,9 24.9000527,9 C24.4027627,9 24,9.44794922 24,10.0000488 C24,12.7570312 26.0186916,15 28.4999999,15 C30.9813083,15 32.9999999,12.7570312 32.9999999,10.0000488 C33.0002635,9.4480957 32.5975008,9 32.1002108,9 Z" id="Shape"></path>
            </g>
        </g>
    </g>
</svg>