<?xml version="1.0" encoding="UTF-8"?>
<svg width="70px" height="70px" viewBox="0 0 70 70" version="1.1" xmlns="http://www.w3.org/2000/svg" xmlns:xlink="http://www.w3.org/1999/xlink">
    <!-- Generator: Sketch 50.2 (55047) - http://www.bohemiancoding.com/sketch -->
    <title>tooth-2</title>
    <desc>Created with Sketch.</desc>
    <defs></defs>
    <g id="Page-1" stroke="none" stroke-width="1" fill="none" fill-rule="evenodd">
        <g id="1440-copy" transform="translate(-506.000000, -313.000000)" fill="#2AB88C" fill-rule="nonzero">
            <g id="tooth-2" transform="translate(506.000000, 313.000000)">
                <path d="M52.0296831,27.0734964 L37.0334537,34.0626536 L36.9615724,33.809155 C36.4134777,31.893334 34.6366627,30.5551757 32.6408343,30.5551757 L31.467148,30.5551757 C31.9029282,29.9348894 32.3724027,29.3381583 32.9103891,28.8019976 C35.8238267,25.8923726 37.4288006,22.0237154 37.4288006,17.9094114 L37.4288006,16.5308728 C37.4288006,11.2758252 33.1473726,7 27.8854392,7 C26.1209787,7 24.3598877,7.50924047 22.7942238,8.47163765 C21.973205,8.97751309 21.2083434,9.24335007 20.5816286,9.24335007 C19.9549138,9.24335007 19.1900521,8.97751309 18.3690333,8.47163765 C16.8033694,7.50924047 15.0422784,7 13.2778179,7 C8.01588448,7 3.73445648,11.2758252 3.73445648,16.5308728 L3.73445648,17.9094114 C3.73445648,22.0237154 5.33943041,25.8923726 8.25174489,28.8019976 C8.78973125,29.3381583 9.26032892,29.9348894 9.69610911,30.5551757 L8.52242278,30.5551757 C6.52771761,30.5551757 4.75090253,31.893334 4.20168472,33.809155 L0,48.5019763 L34.5513037,48.5019763 C36.0259928,56.2920094 40.7791416,63.258733 47.6920979,67.4010789 L52.0296831,70 L56.3672684,67.4010789 C64.7762535,62.3625147 70,53.149076 70,43.3546096 L70,35.4490439 L52.0296831,27.0734964 Z M5.98074609,17.9094114 L5.98074609,16.5308728 C5.98074609,12.5130328 9.2547132,9.24335007 13.2778179,9.24335007 C14.6255917,9.24335007 15.9789811,9.63817968 17.1908544,10.3829719 C19.5752908,11.8490012 21.5868432,11.8490012 23.9712796,10.3829719 C25.184276,9.63817968 26.5376655,9.24335007 27.8854392,9.24335007 C31.9085439,9.24335007 35.182511,12.5130328 35.182511,16.5308728 L35.182511,17.9094114 C35.182511,21.4247409 33.8111512,24.7303173 31.3222623,27.2159492 C29.5218612,29.0139942 28.1853189,31.2494926 27.4541516,33.6835274 L25.5346972,40.0748317 C25.4313678,40.419186 25.1202567,40.650251 24.7597272,40.650251 C24.3138387,40.650251 23.951063,40.28795 23.951063,39.842645 L23.951063,28.3118257 C23.951063,26.4565752 22.4393101,24.9468006 20.5816286,24.9468006 C18.7239471,24.9468006 17.2121941,26.4565752 17.2121941,28.3118257 L17.2121941,39.842645 C17.2121941,40.2868283 16.8494184,40.650251 16.4035299,40.650251 C16.0430004,40.650251 15.7307661,40.419186 15.62856,40.0748317 L13.7091055,33.6824057 C12.9779382,31.2483709 11.6402728,29.0128726 9.84099479,27.2148275 C7.3521059,24.7303173 5.98074609,21.4236193 5.98074609,17.9094114 Z M34.0593662,35.4490439 L34.0593662,43.3546096 C34.0593662,44.3304668 34.1256318,45.2973507 34.2267148,46.2586262 L2.97633373,46.2586262 L6.36261532,34.4249546 C6.63666266,33.4681658 7.52394705,32.7985258 8.52242278,32.7985258 L10.9922182,32.7985258 C11.2123546,33.2954278 11.4010429,33.80579 11.55716,34.3262472 L13.4766145,40.7197949 C13.8674689,42.0209379 15.0445247,42.8936011 16.4035299,42.8936011 C18.0882471,42.8936011 19.4584838,41.5251576 19.4584838,39.842645 L19.4584838,28.3118257 C19.4584838,27.692661 19.9616526,27.1901506 20.5816286,27.1901506 C21.2016045,27.1901506 21.7047734,27.692661 21.7047734,28.3118257 L21.7047734,39.842645 C21.7047734,41.5251576 23.07501,42.8936011 24.7597272,42.8936011 C26.1187325,42.8936011 27.2957882,42.0209379 27.6866426,40.7197949 L29.6060971,34.3273689 C29.7622142,33.80579 29.9520257,33.2954278 30.1710389,32.7996475 L32.6408343,32.7996475 C33.6393101,32.7996475 34.5265945,33.4692875 34.8006418,34.4260763 L34.9713598,35.0250507 L34.0593662,35.4490439 Z M67.7537104,43.3546096 C67.7537104,52.3650251 62.9477738,60.842645 55.2115523,65.4774063 L52.0296831,67.3842538 L48.8478139,65.4774063 C41.1115925,60.842645 36.3056558,52.3650251 36.3056558,43.3546096 L36.3056558,36.8780579 L52.0296831,29.5501549 L67.7537104,36.8780579 L67.7537104,43.3546096 Z" id="Shape"></path>
                <path d="M51.5,32 L38,38.3318489 L38,43.4190333 C38,51.7100134 42.395375,59.5103628 49.4705,63.7768148 L51.5,65 L53.530625,63.7768148 C60.60575,59.5114933 65,51.7100134 65,43.4190333 L65,38.3318489 L51.5,32 Z M62.75,43.4190333 C62.75,50.9209345 58.77425,57.978555 52.371875,61.8380323 L51.5,62.363708 L50.62925,61.8380323 C44.226875,57.978555 40.25,50.9209345 40.25,43.4190333 L40.25,39.7709568 L51.5,34.4949813 L62.75,39.7709568 L62.75,43.4190333 Z" id="Shape"></path>
                <polygon id="Shape" points="57.3895216 42 49.0831435 49.9263907 47.6104784 48.5210948 46 50.0578994 49.0831435 53 59 43.5368047"></polygon>
                <path d="M24.7951109,12 C21.5422363,14.2785388 18.4555908,14.2773973 15.2048891,12.0011416 L14,13.9006849 C15.9893164,15.293379 18.0068809,16 19.9994568,16 C21.9920326,16 24.0106836,15.293379 26,13.8995434 L24.7951109,12 Z" id="Shape"></path>
                <rect id="Rectangle-path" x="39" y="0" width="3" height="3"></rect>
                <rect id="Rectangle-path" x="38" y="3" width="3" height="3"></rect>
                <rect id="Rectangle-path" x="39" y="4" width="3" height="3"></rect>
                <rect id="Rectangle-path" x="42" y="3" width="3" height="3"></rect>
                <rect id="Rectangle-path" x="3" y="51" width="3" height="3"></rect>
                <rect id="Rectangle-path" x="0" y="53" width="3" height="3"></rect>
                <rect id="Rectangle-path" x="3" y="55" width="3" height="3"></rect>
                <rect id="Rectangle-path" x="5" y="53" width="3" height="3"></rect>
            </g>
        </g>
    </g>
</svg>