<?xml version="1.0" encoding="UTF-8"?>
<svg width="57px" height="60px" viewBox="0 0 57 60" version="1.1" xmlns="http://www.w3.org/2000/svg" xmlns:xlink="http://www.w3.org/1999/xlink">
    <!-- Generator: Sketch 50.2 (55047) - http://www.bohemiancoding.com/sketch -->
    <title>tooth-4</title>
    <desc>Created with Sketch.</desc>
    <defs></defs>
    <g id="Page-1" stroke="none" stroke-width="1" fill="none" fill-rule="evenodd">
        <g id="1440-copy" transform="translate(-312.000000, -320.000000)" fill="#2AB88C" fill-rule="nonzero">
            <g id="tooth-4" transform="translate(312.000000, 320.000000)">
                <path d="M42.0000988,21.4831055 C41.4475604,21.4831055 41.0000511,21.9310547 41.0000511,22.4831543 L41.0000511,55.9996582 C41.0000511,57.1026855 40.1035677,58.0001953 39.0020065,58.0001953 L3.99813999,58.0001953 C2.89657874,58.0001953 2.00009539,57.1026855 2.00009539,55.9996582 L2.00009539,14.0000977 L10.4141483,14.0000977 C10.9666868,14.0000977 11.414196,13.5521484 11.414196,13.0000488 C11.414196,12.4479492 10.9666868,12 10.4141483,12 L1.00004769,12 C0.447509257,12 0,12.4479492 0,13.0000488 L0,55.9995117 C0,58.2055664 1.7939921,60 3.99799351,60 L39.0020065,60 C41.2060079,60 43,58.2055664 43,55.9995117 L43,22.4831543 C43,21.9310547 42.5526372,21.4831055 42.0000988,21.4831055 Z" id="Shape"></path>
                <path d="M25.9751045,12 L16.0248955,12 C15.4586284,12 15,12.4479273 15,13 C15,13.5520727 15.4586284,14 16.0248955,14 L25.9751045,14 C26.5413716,14 27,13.5520727 27,13 C27,12.4479273 26.5413716,12 25.9751045,12 Z" id="Shape"></path>
                <g id="Group" transform="translate(4.000000, 30.000000)">
                    <rect id="Rectangle-path" x="0.0475708155" y="0.0837025316" width="6.9732103" height="2.98126582"></rect>
                    <rect id="Rectangle-path" x="13.9939914" y="0.0837025316" width="6.9732103" height="2.98126582"></rect>
                    <rect id="Rectangle-path" x="26.9460944" y="0.0837025316" width="1.99228326" height="2.98126582"></rect>
                    <rect id="Rectangle-path" x="0.0475708155" y="10.0227595" width="6.9732103" height="2.98126582"></rect>
                    <rect id="Rectangle-path" x="13.9939914" y="10.0227595" width="6.9732103" height="2.98126582"></rect>
                    <rect id="Rectangle-path" x="26.9460944" y="10.0227595" width="6.9732103" height="2.98126582"></rect>
                    <rect id="Rectangle-path" x="0.0475708155" y="19.9602152" width="6.9732103" height="2.98126582"></rect>
                    <rect id="Rectangle-path" x="13.9939914" y="19.9602152" width="6.9732103" height="2.98126582"></rect>
                    <rect id="Rectangle-path" x="26.9460944" y="19.9602152" width="6.9732103" height="2.98126582"></rect>
                </g>
                <path d="M29.5003954,17.8651207 C29.3459413,17.9541839 29.1750903,17.9995943 28.9926735,17.9995943 L28.0032892,17.9995943 C27.4495971,17.9995943 26.9988256,17.5545715 26.9988256,17.0075947 L26.9988256,9.99211232 C26.9988256,9.44557501 27.4500363,9.00011268 28.0032892,9.00011268 L28.9926735,9.00011268 C29.1705518,9.00011268 29.3449165,9.04654858 29.4983457,9.1360512 C29.975616,9.41349469 30.5872833,9.2520677 30.8645686,8.77452505 C31.1414146,8.29756834 30.9805189,7.68555202 30.5032486,7.40752259 C30.0454498,7.14106551 29.5232341,7 28.9926735,7 L28.0032892,7 C26.3467514,7 25,8.34195344 25,9.99196584 L25,17.0080342 C25,18.6576071 26.3471906,20 28.0032892,20 L28.9926735,20 C29.5229413,20 30.0441321,19.8605458 30.4998814,19.5959931 C30.9781765,19.3204539 31.1420002,18.7084376 30.8657398,18.2304555 C30.5887473,17.7515944 29.9766409,17.5866518 29.5003954,17.8651207 Z" id="Shape"></path>
                <path d="M49.0446325,0 C47.8001429,0 46.7113595,0.582561013 45.7518964,1.09586036 C44.9146495,1.54312635 44.1233606,1.96632685 43.3528035,1.96632685 C42.5486116,1.96632685 41.5286927,1.50908248 40.5419737,1.06621872 C39.3737424,0.542500772 38.1652074,0 36.9553675,0 C32.3462329,0 29,5.0117856 29,11.9163809 C29,15.7856426 31.1927894,38 36.9553675,38 C38.8621157,38 39.5445263,34.894084 40.5786531,30.1933889 C41.1086919,27.7877201 42.3468025,22.1543404 43.3488891,22.1497915 C44.7325574,22.1547807 45.5708191,27.6775178 46.0211202,30.6446169 C46.6936722,35.0738415 47.1370144,38 49.0441975,38 C54.8067756,38 56.9995651,15.7862295 57,11.9163809 C57,5.0117856 53.6537671,0 49.0446325,0 Z M49.1801867,36.0495212 C48.6769687,35.384932 48.2197087,32.3726367 47.9123557,30.3505483 C47.1561515,25.3719262 46.375301,20.2233781 43.3483092,20.2128128 C40.8101826,20.2242586 39.8378164,24.648494 38.7110489,29.7719493 C38.2121802,32.0399753 37.4659794,35.4318891 36.8464892,36.0543636 C34.149032,35.6382067 30.9131272,19.7919601 30.9131272,11.9162342 C30.9131272,6.22679951 33.5101148,1.93683194 36.9547876,1.93683194 C37.7598494,1.93683194 38.7797683,2.39407631 39.7666323,2.8363531 C40.9350085,3.36080476 42.1433986,3.90271857 43.3523686,3.90271857 C44.5970031,3.90271857 45.6856415,3.32015755 46.6451047,2.8068582 C47.4823515,2.35959222 48.2736404,1.93639172 49.0441975,1.93639172 C52.4888704,1.93639172 55.0858579,6.22694625 55.0858579,11.9157939 C55.0858579,19.7640794 51.8718448,35.5281511 49.1801867,36.0495212 Z" id="Shape"></path>
                <path d="M37.9998326,3 C34.6914288,3 32,5.69148513 32,8.99995815 C32,9.55190742 32.4474973,10 33.0000209,10 C33.552984,10 34.0000419,9.55205391 34.0000419,8.99995815 C34.0000419,6.79450478 35.7939859,4.99993722 37.9999791,4.99993722 C38.5525027,4.99993722 39,4.55199113 39,3.99989537 C39,3.44779961 38.5522098,3 37.9998326,3 Z" id="Shape"></path>
                <path d="M13.9949776,7 L13.0050224,7 C11.3475286,7 10,8.34195344 10,9.99196584 L10,17.0080342 C10,18.6576071 11.347968,20 13.0050224,20 L13.9949776,20 C15.652032,20 17,18.6574606 17,17.0074482 L17,9.99211232 C17,8.34253938 15.652032,7 13.9949776,7 Z M15.0000209,17.0075947 C15.0000209,17.554132 14.5485498,17.9995943 13.9949776,17.9995943 L13.0050224,17.9995943 C12.4510108,17.9995943 11.9999791,17.5545715 11.9999791,17.0075947 L11.9999791,9.99211232 C11.9999791,9.44557501 12.4514502,9.00011268 13.0050224,9.00011268 L13.9949776,9.00011268 C14.5489892,9.00011268 15.0000209,9.44513556 15.0000209,9.99211232 L15.0000209,17.0075947 Z" id="Shape"></path>
            </g>
        </g>
    </g>
</svg>