<?xml version="1.0" encoding="UTF-8"?>
<svg width="76px" height="87px" viewBox="0 0 76 87" version="1.1" xmlns="http://www.w3.org/2000/svg" xmlns:xlink="http://www.w3.org/1999/xlink">
    <!-- Generator: Sketch 50.2 (55047) - http://www.bohemiancoding.com/sketch -->
    <title>oplata4</title>
    <desc>Created with Sketch.</desc>
    <defs></defs>
    <g id="Page-1" stroke="none" stroke-width="1" fill="none" fill-rule="evenodd">
        <g id="1440-copy" transform="translate(-796.000000, -5616.000000)" fill="#2AB88C" fill-rule="nonzero">
            <g id="oplata4" transform="translate(796.000000, 5616.000000)">
                <g id="wallet">
                    <path d="M73.1535351,14.9840434 L46.4080952,0.601848025 C43.8709784,-0.762885846 40.3824428,0.286909439 39.0081712,2.80641812 L23.3626174,31.6757885 L4.33424124,31.6757885 C1.90283762,31.6757885 0,33.56542 0,35.9799491 L0,43.5384752 L0,82.6958393 C0,85.1103685 1.90283762,87 4.33424124,87 L65.1193318,87 C67.5507354,87 69.4535731,85.1103685 69.4535731,82.6958393 L69.4535731,71.7779684 L71.2506975,71.7779684 C72.2021163,71.7779684 72.9421087,71.0431117 72.9421087,70.0982959 L72.9421087,57.605732 C72.9421087,56.6609163 72.2021163,55.9260596 71.2506975,55.9260596 L69.4535731,55.9260596 L69.4535731,43.6434547 C69.4535731,41.6488437 67.9735882,39.8641917 66.0707506,39.4442736 L75.3735123,22.3326104 C76.7477839,19.7081222 75.7963651,16.4537568 73.1535351,14.9840434 Z M54.1251589,8.58029219 L37.4224732,39.3392941 L32.6653791,39.3392941 L50.5309101,6.69066068 L54.1251589,8.58029219 Z M42.073854,4.38111105 C42.60242,3.4362953 43.8709784,3.01637718 44.8223972,3.54127482 L47.4652273,5.01098822 L28.8597039,39.3392941 L23.0454778,39.3392941 L42.073854,4.38111105 Z M3.27710923,35.8749696 C3.27710923,35.560031 3.69996204,35.0351334 4.22852804,35.0351334 L21.4597798,35.0351334 L19.1340894,39.2343145 L4.22852804,39.2343145 C3.91138844,39.2343145 3.59424883,39.2343145 3.27710923,39.3392941 L3.27710923,35.8749696 Z M65.9650374,82.6958393 C65.9650374,83.220737 65.5421846,83.6406551 65.0136186,83.6406551 L4.22852804,83.6406551 C3.69996204,83.6406551 3.27710923,83.220737 3.27710923,82.6958393 L3.27710923,43.6434547 C3.27710923,43.1185571 3.69996204,42.698639 4.22852804,42.698639 L20.1912214,42.698639 L26.9568663,42.698639 L39.3253108,42.698639 L63.110781,42.698639 L64.9079054,42.698639 C65.4364714,42.698639 65.8593242,43.1185571 65.8593242,43.6434547 L65.8593242,55.9260596 L59.410819,55.9260596 C56.5565625,55.9260596 54.3365853,58.2356092 54.3365853,60.9650769 L54.3365853,66.738951 C54.3365853,69.5733983 56.6622757,71.7779684 59.410819,71.7779684 L65.9650374,71.7779684 L65.9650374,82.6958393 Z M69.3478599,59.2854045 L69.4535731,59.2854045 L69.4535731,68.4186235 L69.3478599,68.4186235 L59.410819,68.4186235 C58.4594002,68.4186235 57.7194077,67.6837668 57.7194077,66.738951 L57.7194077,60.9650769 C57.7194077,60.0202612 58.4594002,59.2854045 59.410819,59.2854045 L69.3478599,59.2854045 Z M72.3078295,20.652938 L62.1593622,39.3392941 L41.2281484,39.3392941 L57.0851285,10.2599646 L71.4621239,18.0284498 C72.5192559,18.4483679 72.8363955,19.7081222 72.3078295,20.652938 Z" id="Shape"></path>
                    <path d="M65.5158214,19.0276812 L64.6760785,18.6247592 C62.5767212,17.5167238 59.7425889,18.3225677 58.5879424,20.3371776 L57.5382637,22.251057 C57.0134244,23.2583619 56.8034887,24.4671278 57.2233601,25.5751632 C57.5382637,26.6831987 58.3780066,27.5897731 59.4276853,28.0934256 L60.2674282,28.4963475 C60.8972354,28.798539 61.6320104,29 62.3667855,29 C64.0462713,29 65.5158214,28.0934256 66.3555643,26.7839292 L67.4052429,24.8700498 C68.4549216,22.7547094 67.6151786,20.1357166 65.5158214,19.0276812 Z M64.3611749,23.3590924 L63.3114962,25.2729718 C62.9965926,25.7766242 62.2618176,25.9780852 61.7369783,25.6758937 L60.8972354,25.1722413 C60.6872996,25.0715108 60.4773639,24.7693193 60.372396,24.5678583 C60.2674282,24.2656668 60.2674282,23.9634753 60.4773639,23.7620144 L61.5270425,21.848135 C61.7369783,21.5459435 62.1568497,21.243752 62.5767212,21.243752 C62.7866569,21.243752 62.8916248,21.243752 63.1015605,21.3444825 L63.9413034,21.7474045 C64.3611749,22.1503265 64.5711106,22.7547094 64.3611749,23.3590924 Z" id="Shape"></path>
                </g>
            </g>
        </g>
    </g>
</svg>