<?xml version="1.0" encoding="UTF-8"?>
<svg width="75px" height="80px" viewBox="0 0 75 80" version="1.1" xmlns="http://www.w3.org/2000/svg" xmlns:xlink="http://www.w3.org/1999/xlink">
    <!-- Generator: Sketch 50.2 (55047) - http://www.bohemiancoding.com/sketch -->
    <title>pay</title>
    <desc>Created with Sketch.</desc>
    <defs></defs>
    <g id="Page-1" stroke="none" stroke-width="1" fill="none" fill-rule="evenodd">
        <g id="1440-copy" transform="translate(-220.000000, -5623.000000)" fill="#2AB88C" fill-rule="nonzero">
            <g id="pay" transform="translate(220.000000, 5623.000000)">
                <path d="M32.5,12 C33.328,12 34,11.328 34,10.5 C34,9.672 33.328,9 32.5,9 C31.672,9 31,9.672 31,10.5 C31,11.328 31.672,12 32.5,12 Z" id="Shape"></path>
                <path d="M48.4375,9.375 C49.3004687,9.375 50,8.6753125 50,7.8125 L50,6.25 C50,2.79734375 47.2034375,0 43.75,0 C43.3970312,0 17.1875,0 17.1875,0 C12.8796875,0 9.375,3.5046875 9.375,7.8125 L9.375,12.5 L4.6875,12.5 C2.1028125,12.5 0,14.6028125 0,17.1875 L0,75.3125 C0,77.8971875 2.1028125,80 4.6875,80 L45.3125,80 C47.8971875,80 50,77.8971875 50,75.3125 L50,69.6875 L73.4375,69.6875 C74.3004687,69.6875 75,68.9878125 75,68.125 L75,33.75 C75,32.8871875 74.3004687,32.1875 73.4375,32.1875 L50,32.1875 L50,17.1875 C50,14.6028125 47.8971875,12.5 45.3125,12.5 L40.625,12.5 L40.625,9.375 L48.4375,9.375 Z M46.875,6.25 L40.625,6.25 C40.625,4.48890625 42.0573437,3.125 43.75,3.125 C45.4757812,3.125 46.875,4.5240625 46.875,6.25 Z M12.5,7.8125 C12.5,5.2278125 14.6028125,3.109375 17.1875,3.109375 L38.335625,3.109375 C37.8004687,4.0371875 37.5,5.12375 37.5,6.25 C37.5,7.70703125 37.5,16.849375 37.5,18.75 L12.5,18.75 L12.5,7.8125 Z M71.875,47.8125 L50,47.8125 L50,41.5625 L71.875,41.5625 L71.875,47.8125 Z M50,66.5625 L50,50.9375 L71.875,50.9375 L71.875,66.5625 L50,66.5625 Z M71.875,38.4375 L50,38.4375 L50,35.3125 L71.875,35.3125 L71.875,38.4375 Z M45.3125,15.625 C46.1740625,15.625 46.875,16.3259375 46.875,17.1875 C46.875,20.1329687 46.875,65.179375 46.875,68.125 L46.875,75.3125 C46.875,76.1740625 46.1740625,76.875 45.3125,76.875 L4.6875,76.875 C3.8259375,76.875 3.125,76.1740625 3.125,75.3125 L3.125,17.1875 C3.125,16.3259375 3.8259375,15.625 4.6875,15.625 L9.375,15.625 L9.375,20.3125 C9.375,21.1753125 10.0745312,21.875 10.9375,21.875 L39.0625,21.875 C39.9254688,21.875 40.625,21.1753125 40.625,20.3125 L40.625,15.625 L45.3125,15.625 Z" id="Shape"></path>
                <path d="M17.5,12 L26.5,12 C27.32845,12 28,11.3283 28,10.5 C28,9.6717 27.32845,9 26.5,9 L17.5,9 C16.67155,9 16,9.6717 16,10.5 C16,11.3283 16.67155,12 17.5,12 Z" id="Shape"></path>
                <path d="M13.5,48 L10.5,48 C9.67155,48 9,48.6717 9,49.5 C9,50.3283 9.67155,51 10.5,51 L13.5,51 C14.32845,51 15,50.3283 15,49.5 C15,48.6717 14.32845,48 13.5,48 Z" id="Shape"></path>
                <path d="M26.5,48 L23.5,48 C22.67155,48 22,48.6717 22,49.5 C22,50.3283 22.67155,51 23.5,51 L26.5,51 C27.32845,51 28,50.3283 28,49.5 C28,48.6717 27.32845,48 26.5,48 Z" id="Shape"></path>
                <path d="M38.5,48 L35.5,48 C34.67155,48 34,48.6717 34,49.5 C34,50.3283 34.67155,51 35.5,51 L38.5,51 C39.32845,51 40,50.3283 40,49.5 C40,48.6717 39.32845,48 38.5,48 Z" id="Shape"></path>
                <path d="M13.5,57 L10.5,57 C9.67155,57 9,57.6717 9,58.5 C9,59.3283 9.67155,60 10.5,60 L13.5,60 C14.32845,60 15,59.3283 15,58.5 C15,57.6717 14.32845,57 13.5,57 Z" id="Shape"></path>
                <path d="M26.5,57 L23.5,57 C22.67155,57 22,57.6717 22,58.5 C22,59.3283 22.67155,60 23.5,60 L26.5,60 C27.32845,60 28,59.3283 28,58.5 C28,57.6717 27.32845,57 26.5,57 Z" id="Shape"></path>
                <path d="M38.5,57 L35.5,57 C34.67155,57 34,57.6717 34,58.5 C34,59.3283 34.67155,60 35.5,60 L38.5,60 C39.32845,60 40,59.3283 40,58.5 C40,57.6717 39.32845,57 38.5,57 Z" id="Shape"></path>
                <path d="M13.5,67 L10.5,67 C9.67155,67 9,67.6717 9,68.5 C9,69.3283 9.67155,70 10.5,70 L13.5,70 C14.32845,70 15,69.3283 15,68.5 C15,67.6717 14.32845,67 13.5,67 Z" id="Shape"></path>
                <path d="M26.5,67 L23.5,67 C22.67155,67 22,67.6717 22,68.5 C22,69.3283 22.67155,70 23.5,70 L26.5,70 C27.32845,70 28,69.3283 28,68.5 C28,67.6717 27.32845,67 26.5,67 Z" id="Shape"></path>
                <path d="M38.5,67 L35.5,67 C34.67155,67 34,67.6717 34,68.5 C34,69.3283 34.67155,70 35.5,70 L38.5,70 C39.32845,70 40,69.3283 40,68.5 C40,67.6717 39.32845,67 38.5,67 Z" id="Shape"></path>
                <path d="M66.5,57 L60.5,57 C59.67155,57 59,57.6717 59,58.5 C59,59.3283 59.67155,60 60.5,60 L66.5,60 C67.32845,60 68,59.3283 68,58.5 C68,57.6717 67.32845,57 66.5,57 Z" id="Shape"></path>
                <path d="M38.45,29 L10.55,29 C9.693935,29 9,29.727675 9,30.625 L9,40.375 C9,41.272325 9.693935,42 10.55,42 L38.45,42 C39.306065,42 40,41.272325 40,40.375 L40,30.625 C40,29.727675 39.306065,29 38.45,29 Z M36.9,38.75 L12.1,38.75 L12.1,32.25 L36.9,32.25 L36.9,38.75 Z" id="Shape"></path>
            </g>
        </g>
    </g>
</svg>